# xmcd
#
# Track frame offsets:
#	150
#	21917
#	35012
#	61155
#	72890
#	100425
#	113615
#	136220
#	154497
#	170467
#	196580
#
# Disc length: 2808 seconds
#
# Revision: 1
# Processed by: cddbd v1.5.1PL0 Copyright (c) Steve Scherf et al.
# Submitted via: audiograbber 1.80
#
DISCID=910af60b
DTITLE=starry nights - in western sahara
DYEAR=1900
DGENRE=
TTITLE0=ya lali - old man
TTITLE1=ashweiba gadia - sweet young girl
TTITLE2=ya chaab id astighlalak - oh people celebrate your independence
TTITLE3=hayu kamileen - everyone celebrate
TTITLE4=ya amal al-jamaheer - the people's aspirations
TTITLE5=hal yesmahu el-alam - will the world allow it
TTITLE6=the celebration
TTITLE7=instrumental tune played at weddings
TTITLE8=bani
TTITLE9=al-hilm - the dream
TTITLE10=assahara ma tinbaa - the sahara is not for sale
EXTD=
EXTT0=
EXTT1=
EXTT2=
EXTT3=
EXTT4=
EXTT5=
EXTT6=
EXTT7=
EXTT8=
EXTT9=
EXTT10=
PLAYORDER=
